<svg xmlns="http://www.w3.org/2000/svg" width="1200" height="630" viewBox="0 0 1200 630">
  <defs>
    <linearGradient id="bg" x1="0%" y1="0%" x2="100%" y2="100%">
      <stop offset="0%" stop-color="#0F172A" />
      <stop offset="50%" stop-color="#1D4ED8" />
      <stop offset="100%" stop-color="#0EA5E9" />
    </linearGradient>
    <linearGradient id="glow" x1="0%" y1="0%" x2="100%" y2="0%">
      <stop offset="0%" stop-color="#F9A8D4" stop-opacity="0.5" />
      <stop offset="50%" stop-color="#C4B5FD" stop-opacity="0.75" />
      <stop offset="100%" stop-color="#38BDF8" stop-opacity="0.5" />
    </linearGradient>
  </defs>
  <rect width="1200" height="630" fill="url(#bg)" rx="32" />
  <g>
    <ellipse cx="260" cy="140" rx="220" ry="120" fill="#F472B6" opacity="0.25" />
    <ellipse cx="980" cy="490" rx="240" ry="130" fill="#38BDF8" opacity="0.25" />
  </g>
  <g transform="translate(140 180)">
    <rect x="0" y="0" width="420" height="270" rx="24" fill="rgba(15,23,42,0.55)" stroke="rgba(148,163,184,0.35)" />
    <g transform="translate(36 40)">
      <rect x="0" y="0" width="160" height="12" rx="6" fill="#E0E7FF" opacity="0.35" />
      <rect x="0" y="40" width="340" height="14" rx="7" fill="#E2E8F0" opacity="0.45" />
      <rect x="0" y="80" width="280" height="14" rx="7" fill="#E2E8F0" opacity="0.35" />
      <rect x="0" y="120" width="310" height="14" rx="7" fill="#E2E8F0" opacity="0.25" />
      <rect x="0" y="180" width="220" height="36" rx="18" fill="url(#glow)" opacity="0.85" />
    </g>
    <g transform="translate(280 190)">
      <circle cx="0" cy="0" r="38" fill="#1D4ED8" opacity="0.8" />
      <path d="M-10 -16 L24 0 L-10 16 Z" fill="#F8FAFC" />
    </g>
  </g>
  <g transform="translate(630 170)">
    <text x="0" y="0" fill="#F8FAFC" font-family="'Inter', 'Helvetica Neue', Arial, sans-serif" font-size="82" font-weight="700">
      Codebase Audiobook
    </text>
    <text x="0" y="82" fill="#E2E8F0" font-family="'Inter', 'Helvetica Neue', Arial, sans-serif" font-size="30" font-weight="500">
      Ship narrated code walkthroughs without opening your editor.
    </text>
    <text x="0" y="150" fill="#C7D2FE" font-family="'Inter', 'Helvetica Neue', Arial, sans-serif" font-size="24" font-weight="500">
      • Deep dives planned by multi-agent workflows
    </text>
    <text x="0" y="200" fill="#C7D2FE" font-family="'Inter', 'Helvetica Neue', Arial, sans-serif" font-size="24" font-weight="500">
      • Studio-quality chapters hosted in the browser player
    </text>
    <text x="0" y="250" fill="#C7D2FE" font-family="'Inter', 'Helvetica Neue', Arial, sans-serif" font-size="24" font-weight="500">
      • Secure storage with signed downloads and per-user access
    </text>
  </g>
</svg>
